<?xml version="1.0" standalone="no"?>
<!DOCTYPE svg PUBLIC "-//W3C//DTD SVG 20010904//EN"
 "http://www.w3.org/TR/2001/REC-SVG-20010904/DTD/svg10.dtd">
<svg version="1.0" xmlns="http://www.w3.org/2000/svg"
 width="300.000000pt" height="300.000000pt" viewBox="0 0 300.000000 300.000000"
 preserveAspectRatio="xMidYMid meet">
<metadata>
Created by potrace 1.10, written by Peter Selinger 2001-2011
</metadata>
<g transform="translate(0.000000,300.000000) scale(0.100000,-0.100000)"
fill="#000000" stroke="none">
<path d="M223 2983 c26 -2 68 -2 95 0 26 2 4 3 -48 3 -52 0 -74 -1 -47 -3z"/>
<path d="M866 2981 c7 -7 113 -8 108 0 -2 4 -29 7 -59 6 -29 -1 -52 -3 -49 -6z"/>
<path d="M990 2983 c0 -10 206 -11 215 -1 3 3 -44 6 -104 7 -61 1 -111 -2
-111 -6z"/>
<path d="M2725 2940 c-19 -4 2 -7 58 -8 49 0 87 1 85 3 -8 7 -116 11 -143 5z"/>
<path d="M2536 2932 c-6 -10 93 -13 111 -4 8 5 -11 9 -46 10 -33 0 -62 -2 -65
-6z"/>
<path d="M0 2912 c0 -4 53 -6 118 -4 169 4 178 9 20 11 -76 0 -138 -2 -138 -7z"/>
<path d="M607 2894 c-2 -2 -56 -5 -119 -5 -64 -1 -122 -5 -129 -10 -13 -8 99
-6 341 6 68 3 126 8 129 11 3 3 -45 4 -106 3 -62 0 -114 -3 -116 -5z"/>
<path d="M2057 2894 c-3 -3 -26 -6 -51 -6 -25 0 -46 -3 -46 -7 0 -10 219 -11
225 -1 3 5 -19 8 -48 8 -29 -1 -58 1 -64 5 -6 4 -13 4 -16 1z"/>
<path d="M1260 2882 c-23 -8 -7 -17 30 -17 22 0 40 5 40 10 0 9 -48 14 -70 7z"/>
<path d="M1423 2876 c2 -6 30 -10 68 -9 35 1 153 3 262 3 108 1 197 5 197 9 0
5 -119 8 -265 8 -180 0 -264 -4 -262 -11z"/>
<path d="M2262 2885 c7 -8 108 -9 115 -1 3 3 -22 6 -57 6 -35 0 -61 -2 -58 -5z"/>
<path d="M523 2783 c8 -7 157 -6 165 2 3 3 -34 5 -83 5 -49 0 -85 -3 -82 -7z"/>
<path d="M2695 2650 c-2 -3 19 -6 46 -7 27 0 49 2 49 6 0 8 -90 9 -95 1z"/>
<path d="M960 2593 c0 -5 -101 -9 -227 -9 -204 -1 -473 -10 -529 -17 -21 -3
-74 -40 -74 -52 0 -10 -27 -35 -39 -35 -15 0 -14 -13 1 -29 9 -9 9 -12 1 -7
-13 7 -28 -28 -18 -44 3 -5 -1 -10 -9 -10 -8 0 -18 -5 -21 -10 -4 -6 -1 -9 7
-8 8 2 14 -10 16 -34 3 -34 1 -38 -20 -39 -22 -1 -22 -1 3 -10 20 -7 26 -15
22 -29 -3 -11 -10 -17 -17 -13 -6 3 -6 0 1 -8 20 -20 15 -37 -9 -42 -22 -4
-22 -4 -2 -6 19 -1 21 -7 21 -61 0 -33 -5 -60 -10 -60 -5 0 -4 -7 3 -15 8 -9
10 -29 7 -50 -4 -23 -2 -35 6 -35 8 0 8 -3 0 -11 -8 -8 -8 -20 -3 -35 8 -19 6
-24 -7 -24 -14 0 -14 -2 3 -15 10 -8 13 -15 7 -15 -9 0 -11 -14 -8 -49 4 -43
2 -51 -15 -56 -11 -3 -25 -3 -31 1 -8 4 -9 3 -5 -4 4 -7 20 -12 36 -12 27 0
28 -1 17 -30 -6 -16 -20 -31 -32 -33 -12 -3 -6 -5 15 -6 19 -2 30 -5 24 -7 -7
-3 -10 -13 -7 -23 3 -11 0 -28 -6 -40 -9 -16 -9 -21 1 -21 9 0 9 -3 -2 -10
-13 -8 -12 -10 5 -10 14 0 16 -3 8 -11 -8 -8 -8 -20 -2 -36 7 -20 5 -25 -13
-32 l-23 -8 22 -7 c25 -8 26 -24 3 -43 -10 -9 -11 -12 -2 -13 6 0 12 -11 12
-25 0 -14 -6 -25 -12 -25 -8 -1 -6 -6 5 -14 10 -8 14 -17 9 -19 -4 -3 -7 -26
-5 -51 2 -32 0 -46 -9 -46 -8 -1 -6 -6 5 -14 14 -11 15 -15 5 -20 -10 -5 -10
-7 0 -12 6 -3 9 -11 5 -17 -11 -19 -11 -71 1 -79 7 -5 7 -8 -2 -8 -8 0 -10 -8
-6 -25 3 -14 1 -31 -5 -39 -9 -10 -8 -15 4 -20 13 -4 14 -10 5 -26 -6 -11 -8
-25 -4 -31 13 -22 10 -119 -5 -124 -11 -4 -10 -9 5 -20 18 -14 18 -14 0 -15
-14 0 -16 -3 -7 -13 6 -8 8 -17 4 -20 -3 -4 -1 -7 5 -7 15 0 3 -31 -17 -48
-14 -11 -14 -11 0 -6 10 3 20 1 24 -5 3 -6 -2 -11 -12 -11 -11 0 -14 -3 -6 -8
16 -10 24 -74 11 -89 -8 -10 -5 -13 11 -13 14 0 20 -4 15 -11 -3 -6 -2 -14 3
-18 5 -3 19 -23 32 -44 13 -21 36 -44 52 -53 17 -8 27 -20 23 -26 -4 -7 -3 -8
4 -4 6 4 21 2 33 -5 15 -8 19 -8 15 0 -5 8 219 11 811 11 450 0 1012 1 1248 2
427 3 430 3 474 26 49 26 72 50 102 106 21 39 21 52 23 597 0 329 5 555 10
551 5 -3 5 1 0 9 -10 17 -12 519 -2 525 4 3 3 16 -2 29 -6 15 -6 25 0 25 5 0
2 21 -6 48 -8 26 -17 54 -19 62 -2 8 -4 16 -5 18 -2 1 -3 5 -5 10 -14 52 -20
64 -37 77 -12 7 -18 20 -15 28 4 11 0 13 -14 10 -10 -3 -19 0 -19 6 0 6 -9 11
-19 11 -11 0 -22 4 -26 9 -3 5 -17 8 -31 5 -14 -3 -30 -2 -36 2 -6 4 -42 6
-81 6 -39 0 -79 3 -88 8 -10 6 -20 5 -27 -2 -8 -8 -12 -8 -12 -2 0 6 -7 11
-15 11 -8 0 -11 -5 -8 -10 4 -6 -2 -8 -15 -5 -12 4 -24 3 -27 -2 -3 -4 -20 -5
-37 -1 -18 4 -67 6 -108 5 -56 -2 -293 -13 -340 -16 -3 0 -14 0 -25 1 -17 1
-18 3 -5 12 12 9 11 9 -5 4 -11 -4 -118 -9 -238 -11 -183 -2 -218 0 -213 11 4
10 -4 9 -29 -5 -32 -18 -33 -18 -30 -1 3 15 -3 18 -36 15 -22 -2 -50 -6 -62
-9 -17 -5 -19 -4 -7 4 13 9 13 11 -2 11 -10 0 -18 -4 -18 -10 0 -5 -5 -10 -11
-10 -5 0 -8 4 -5 8 2 4 -4 8 -14 8 -10 0 -16 -5 -13 -10 4 -5 1 -6 -8 0 -21
13 -39 14 -39 2 0 -6 -7 -4 -17 3 -11 10 -14 10 -9 2 9 -16 -7 -17 -52 -4 -24
7 -31 7 -25 -2 4 -7 0 -6 -10 2 -14 11 -20 11 -32 1 -12 -10 -18 -10 -32 1
-15 12 -16 12 -8 -1 8 -13 7 -13 -8 -1 -9 7 -17 9 -17 4z m1815 -62 c30 -13
47 -31 68 -70 l28 -51 0 -911 c0 -1022 6 -938 -74 -1003 l-39 -31 -1272 0
-1273 0 -36 28 c-21 16 -46 46 -57 67 -20 39 -20 56 -18 958 l3 919 29 37 c16
21 47 47 70 57 39 18 91 19 1286 19 1182 0 1247 -1 1285 -19z"/>
<path d="M2340 2520 c-21 -7 -18 -8 18 -9 26 -1 41 3 37 9 -7 11 -19 11 -55 0z"/>
<path d="M244 2450 c-38 -15 -66 -61 -62 -102 2 -21 -1 -39 -6 -41 -5 -2 -11
-10 -12 -18 -2 -7 -6 -24 -10 -37 -6 -22 -4 -23 27 -20 29 3 35 7 39 33 4 23
11 31 30 33 38 3 80 55 80 97 l0 35 395 0 c217 0 395 -3 395 -7 0 -5 -173 -7
-385 -5 l-385 3 0 -37 c0 -28 -8 -44 -34 -70 -19 -19 -41 -34 -49 -34 -9 0
-23 -14 -31 -32 -14 -27 -16 -111 -16 -689 0 -616 1 -659 18 -669 14 -10 13
-11 -8 -6 -14 3 -27 6 -30 6 -3 0 -3 50 -2 111 3 81 1 109 -7 104 -8 -4 -11
-81 -10 -256 1 -246 1 -250 24 -277 l23 -27 1256 0 1257 0 26 27 c21 22 25 33
20 62 -3 20 -2 36 4 36 12 0 12 1647 0 1655 -5 3 -7 14 -4 25 9 34 -7 70 -40
90 -31 20 -56 20 -1257 19 -674 0 -1235 -4 -1246 -9z m2491 -34 c36 -35 42
-50 25 -61 -5 -3 -10 -2 -10 4 0 12 -40 51 -52 51 -4 0 -8 -11 -8 -25 0 -19
10 -31 35 -46 40 -24 43 -29 15 -29 -50 0 -90 84 -57 119 10 11 10 13 0 7 -7
-4 -13 -2 -13 3 0 21 30 10 65 -23z m-2430 -5 c13 -43 -34 -99 -76 -88 -10 3
-20 0 -23 -7 -3 -6 -3 7 0 29 9 65 83 115 99 66z m2340 -13 c-4 -46 20 -87 61
-104 89 -37 47 -40 -528 -36 l-408 2 0 60 0 60 428 2 c372 3 427 5 427 18 0
13 -87 15 -725 16 -399 0 -730 -2 -737 -4 -9 -3 -8 -10 3 -27 8 -12 13 -28 11
-36 -2 -8 -2 -11 0 -6 9 14 33 7 33 -10 0 -13 6 -10 19 11 18 27 61 44 61 24
0 -4 0 -11 0 -15 0 -5 -5 -8 -11 -8 -6 0 -16 -8 -23 -17 -7 -10 -18 -18 -25
-18 -6 0 -11 -4 -11 -10 0 -5 -12 -10 -26 -10 -14 0 -23 -4 -19 -10 4 -6 11
-8 16 -5 5 4 9 1 9 -4 0 -14 -11 -13 -32 3 -10 7 -15 16 -11 20 4 4 1 11 -7
16 -11 7 -11 10 -2 10 15 0 11 54 -7 88 l-12 22 759 0 760 0 -3 -32z m-1171
-14 c20 -8 21 -24 1 -24 -8 0 -15 -5 -15 -11 0 -5 5 -7 10 -4 6 3 10 2 10 -4
0 -16 -14 -20 -30 -8 -21 17 -23 37 -4 37 8 0 12 5 9 10 -7 12 -3 12 19 4z
m258 -12 c7 -7 13 -21 15 -32 4 -24 -15 -23 -73 8 -23 11 -44 18 -48 15 -3 -4
-6 -1 -6 5 0 5 6 13 13 16 20 8 87 0 99 -12z m-658 -14 c14 -20 16 -93 16
-600 0 -387 3 -578 10 -578 7 0 10 192 8 590 -2 393 0 586 7 579 6 -6 10 -131
10 -334 l0 -325 818 0 817 0 0 220 c0 202 5 243 25 210 3 -5 2 -10 -4 -10 -6
0 -10 -202 -10 -592 0 -326 -1 -643 -1 -704 l0 -111 -38 -7 c-47 -7 -73 -34
-81 -84 l-6 -37 -1158 -3 -1157 -2 0 30 c0 40 -45 90 -90 99 l-35 7 -3 82 c-2
52 1 82 8 82 5 0 10 -4 10 -10 0 -11 53 -14 63 -3 4 3 0 11 -8 17 -10 8 -15
37 -17 103 -4 126 1 130 144 135 59 1 110 -1 114 -5 11 -11 34 -8 34 4 0 5 -4
7 -10 4 -5 -3 -10 -1 -10 4 0 6 7 11 15 11 8 0 15 -4 15 -10 0 -5 40 -8 96 -7
131 3 134 -1 134 -167 0 -82 3 -116 10 -106 5 8 10 83 10 166 l0 150 -267 3
c-148 1 -272 6 -276 10 -6 6 -12 834 -7 1053 0 10 14 21 34 28 18 6 41 19 51
30 10 11 22 17 26 14 5 -3 9 12 9 34 0 21 3 42 7 45 3 4 156 7 339 7 333 0
333 0 348 -22z m554 -41 c6 -5 17 -5 22 -2 6 3 10 1 10 -5 0 -6 5 -8 10 -5 6
3 10 1 10 -5 0 -6 5 -8 10 -5 6 3 10 -1 10 -10 0 -9 4 -14 9 -11 13 8 54 -60
54 -90 0 -13 4 -27 9 -30 6 -4 8 11 7 37 l-4 44 465 0 c256 1 470 -1 475 -2
11 -4 12 -484 1 -502 -5 -8 -143 -11 -471 -11 l-465 0 -6 27 c-4 14 -4 93 -1
175 3 90 2 146 -4 143 -5 -4 -9 -19 -9 -36 0 -16 -5 -29 -12 -29 -6 0 -9 -3
-5 -6 14 -14 -61 -144 -79 -137 -8 3 -14 -1 -14 -10 0 -10 -7 -15 -20 -12 -15
3 -20 -2 -21 -18 -1 -17 -2 -18 -6 -5 -3 13 -9 16 -21 9 -19 -9 -74 -7 -100 5
-30 13 -42 12 -42 -2 0 -20 -27 -17 -34 3 -5 13 -9 14 -15 5 -7 -12 -38 -16
-81 -8 -14 2 -29 5 -34 5 -4 1 -6 7 -3 15 3 8 -5 18 -19 25 -13 6 -24 18 -24
26 0 9 -4 14 -9 10 -13 -7 -25 57 -16 84 3 12 18 27 33 35 25 13 25 14 5 20
-18 6 -33 24 -32 41 0 3 -8 13 -16 22 -11 11 -13 18 -5 23 6 4 8 14 5 22 -4 9
-1 19 5 23 9 6 9 10 -1 16 -10 6 -11 9 -1 9 6 0 12 9 12 19 0 11 15 31 33 45
17 15 38 31 45 37 7 6 28 13 47 16 28 4 35 2 35 -11 0 -9 5 -16 10 -16 6 0 10
7 10 15 0 19 10 19 36 0 12 -8 24 -11 28 -8 3 3 6 1 6 -5 0 -18 23 -14 46 6
23 21 42 22 54 2 8 -12 10 -10 10 8 0 18 5 22 23 20 12 -2 28 -7 35 -11z
m1148 -97 c-1 -78 -16 -78 -16 0 0 33 4 60 9 60 5 0 8 -27 7 -60z m-1591 -361
c4 -5 18 -14 32 -20 34 -13 23 -34 -18 -34 -19 0 -37 -4 -41 -10 -6 -7 -4 56
1 73 2 6 21 1 26 -9z m545 -119 c0 -20 -7 -20 -285 -20 -278 0 -285 0 -285 20
0 20 7 20 285 20 278 0 285 0 285 -20z m-1452 -1093 c26 -24 30 -75 6 -84 -21
-8 -68 28 -72 55 -3 19 1 18 29 -11 29 -28 34 -30 37 -14 4 21 -22 54 -49 62
-11 4 -17 10 -14 15 7 12 35 2 63 -23z m2471 9 c-38 -16 -59 -36 -59 -57 0
-27 14 -23 43 11 28 33 37 37 37 17 0 -8 -16 -28 -36 -46 -28 -26 -38 -30 -50
-21 -17 15 -18 44 -3 71 12 23 68 51 84 41 5 -3 -2 -11 -16 -16z"/>
<path d="M269 2405 c-1 -6 -1 -13 0 -17 0 -4 -5 -5 -13 -2 -8 3 -17 1 -21 -5
-3 -6 -1 -11 4 -11 6 0 11 -4 11 -10 0 -5 -7 -7 -15 -4 -10 4 -15 0 -15 -10 0
-15 3 -15 29 -2 32 17 47 44 31 60 -6 6 -10 6 -11 1z"/>
<path d="M1810 2320 c0 -22 4 -40 8 -40 4 0 8 18 7 40 0 22 -3 40 -7 40 -5 0
-8 -18 -8 -40z"/>
<path d="M2303 2333 c-7 -3 -13 -16 -13 -29 0 -17 6 -24 20 -24 22 0 27 15 9
26 -8 5 -8 9 1 14 14 9 0 19 -17 13z"/>
<path d="M2401 2326 c-15 -17 -3 -48 17 -44 18 4 29 28 12 28 -6 0 -8 -4 -5
-10 3 -5 1 -10 -4 -10 -6 0 -11 7 -11 15 0 8 7 15 16 15 8 0 12 5 9 10 -9 14
-20 13 -34 -4z"/>
<path d="M2462 2315 c-16 -34 -16 -33 13 -31 20 1 24 5 19 21 -10 34 -20 37
-32 10z"/>
<path d="M2529 2333 c-11 -3 -15 -11 -11 -28 5 -29 22 -33 22 -6 0 11 5 21 12
23 17 6 -4 15 -23 11z"/>
<path d="M2181 2303 c0 -16 3 -22 6 -15 4 10 8 10 19 1 11 -9 14 -6 14 17 0
22 -3 26 -10 14 -6 -10 -10 -11 -10 -2 0 6 -4 12 -10 12 -5 0 -10 -12 -9 -27z"/>
<path d="M2582 2308 c2 -15 10 -23 23 -23 13 0 21 8 23 23 2 12 -1 22 -7 22
-6 0 -11 -7 -11 -15 0 -8 -4 -15 -10 -15 -5 0 -7 7 -4 15 4 8 1 15 -6 15 -6 0
-10 -10 -8 -22z"/>
<path d="M530 2325 c0 -2 17 -13 39 -24 21 -11 50 -33 63 -50 19 -21 28 -27
37 -18 8 8 9 5 6 -11 -2 -12 -3 -22 -1 -22 14 0 116 49 103 50 -10 0 -32 -7
-48 -16 -17 -8 -36 -13 -42 -11 -6 2 21 16 61 32 68 26 98 45 73 45 -8 0 -88
-35 -134 -58 -4 -2 -4 3 -1 11 3 8 28 27 57 43 28 15 46 29 40 31 -18 6 -90
-34 -108 -59 l-16 -23 -17 22 c-28 35 -112 79 -112 58z"/>
<path d="M490 2290 c0 -5 5 -10 11 -10 15 0 130 -52 126 -57 -2 -2 -20 4 -40
12 -60 25 -66 16 -8 -11 64 -29 60 -28 57 -6 -1 9 -28 31 -62 49 -62 34 -84
40 -84 23z"/>
<path d="M420 2253 c0 -24 32 -42 120 -68 52 -16 106 -28 120 -28 14 0 73 15
133 33 88 27 107 37 107 53 0 14 -4 17 -17 12 -77 -30 -203 -67 -228 -67 -25
1 -145 38 -217 67 -10 4 -18 3 -18 -2z"/>
<path d="M430 2158 l1 -43 89 -42 90 -42 0 -61 0 -60 -90 45 -90 45 0 -69 0
-69 80 -38 c56 -26 80 -42 80 -55 0 -21 37 -49 65 -49 28 0 65 27 65 49 0 12
26 28 90 55 l90 39 0 168 c0 93 -3 169 -6 169 -4 0 -49 -13 -101 -30 -116 -37
-146 -37 -263 0 -52 16 -96 30 -97 30 -2 0 -3 -19 -3 -42z m137 -28 c1 0 7 -9
13 -19 9 -18 7 -19 -17 -15 -15 3 -33 10 -40 16 -7 6 -13 7 -13 2 0 -4 -5 -3
-11 3 -20 20 -1 32 34 22 17 -5 33 -9 34 -9z m263 1 c0 -8 -65 -41 -80 -41
-15 0 -12 27 4 33 7 3 19 0 25 -6 10 -10 16 0 13 24 -1 4 8 5 18 2 11 -3 20
-8 20 -12z m-118 -16 c14 -19 8 -35 -17 -41 -25 -6 -25 -8 -25 -109 0 -102 0
-103 23 -98 18 5 20 3 10 -8 -17 -17 -79 -17 -96 0 -10 11 -7 13 13 8 l26 -6
-1 102 c0 89 -2 102 -17 105 -10 2 -18 8 -18 13 0 5 11 7 25 3 30 -7 75 2 75
16 0 6 -11 8 -25 4 -27 -7 -75 2 -75 14 0 11 94 8 102 -3z m156 -76 l-3 -60
-77 -34 -78 -34 0 60 0 59 68 34 c37 19 73 35 80 36 10 0 12 -16 10 -61z
m-282 -149 c1 0 2 -9 1 -20 -2 -26 -34 -36 -55 -17 -9 7 -25 17 -35 20 -18 7
-38 46 -30 59 2 4 29 -4 60 -17 30 -14 57 -25 59 -25z m259 40 c-3 -5 -1 -10
4 -10 6 0 11 -6 11 -14 0 -13 -32 -32 -93 -55 -25 -10 -27 -9 -27 14 0 19 11
29 53 49 62 29 60 28 52 16z m-135 -105 c-15 -18 -95 -21 -106 -4 -4 8 5 9 32
5 27 -5 45 -2 59 8 24 17 33 12 15 -9z m-37 -52 c9 -9 -13 -34 -24 -27 -14 8
-11 34 4 34 8 0 17 -3 20 -7z"/>
<path d="M792 2053 c-29 -14 -51 -27 -49 -29 7 -7 117 38 117 47 0 13 -8 10
-68 -18z"/>
<path d="M783 2018 c-47 -18 -53 -24 -53 -49 l0 -28 59 26 c44 19 60 31 64 49
5 28 -1 28 -70 2z"/>
<path d="M990 2125 c0 -20 -4 -26 -15 -22 -23 9 -28 -11 -5 -23 26 -14 26 -36
0 -52 -11 -7 -20 -17 -20 -22 0 -4 9 -6 20 -3 13 3 20 0 20 -10 0 -8 6 -13 13
-10 6 2 12 14 11 25 0 13 7 24 18 28 22 7 24 30 3 38 -8 3 -15 15 -15 26 0 11
-5 20 -11 20 -5 0 -8 4 -4 9 3 5 1 12 -5 16 -6 4 -10 -5 -10 -20z"/>
<path d="M335 2130 c3 -5 -1 -10 -11 -10 -11 0 -15 -6 -12 -18 3 -12 -2 -24
-15 -32 l-21 -13 21 -17 c12 -9 21 -25 20 -36 -1 -10 6 -20 16 -22 10 -2 17 3
17 12 0 10 6 13 15 10 22 -9 18 9 -5 24 -11 7 -20 17 -20 22 0 6 9 18 20 27
24 20 26 38 5 29 -10 -4 -15 1 -15 14 0 11 -5 20 -11 20 -5 0 -7 -4 -4 -10z"/>
<path d="M430 2057 l1 -42 79 -37 80 -37 0 42 -1 42 -79 37 -80 37 0 -42z m95
-22 c32 -14 55 -28 52 -31 -2 -3 -33 8 -68 25 -78 36 -64 41 16 6z"/>
<path d="M348 1807 c-33 -13 -37 -27 -8 -27 17 0 20 -7 20 -40 0 -29 4 -40 15
-40 12 0 15 13 15 60 0 33 -3 60 -7 59 -5 -1 -20 -6 -35 -12z"/>
<path d="M946 1804 c-22 -22 -21 -23 19 -17 28 4 35 2 35 -11 0 -9 -4 -16 -8
-16 -12 0 -52 -39 -52 -51 0 -6 20 -9 48 -7 27 2 45 7 42 13 -3 6 -16 9 -30 7
l-25 -3 27 28 c26 27 27 30 12 51 -18 26 -46 28 -68 6z"/>
<path d="M457 1773 c-4 -3 -2 -12 4 -19 7 -9 7 -19 -1 -33 -9 -18 -8 -21 9
-21 10 0 22 7 25 16 5 14 8 14 23 -2 17 -17 18 -17 22 1 5 30 -62 78 -82 58z"/>
<path d="M814 1757 c-15 -14 -25 -31 -23 -42 4 -18 5 -18 22 -1 15 16 18 16
23 2 3 -9 15 -16 25 -16 22 0 24 11 7 28 -8 8 -8 15 0 25 7 8 9 17 5 20 -12
13 -32 7 -59 -16z"/>
<path d="M1125 1660 c-4 -7 153 -10 464 -10 307 0 471 3 471 10 0 14 -926 14
-935 0z"/>
<path d="M2080 1425 c0 -157 4 -245 10 -245 6 0 10 85 10 235 l0 235 315 0
c174 0 315 -4 315 -9 0 -5 -7 -14 -15 -21 -24 -20 -10 -23 19 -5 14 10 26 26
26 36 0 18 -14 19 -340 19 l-340 0 0 -245z"/>
<path d="M444 1630 c-26 -10 -36 -34 -28 -64 5 -22 3 -23 -43 -19 -26 2 -53 0
-60 -4 -8 -6 -13 -51 -14 -147 0 -75 1 -139 3 -142 7 -7 726 -6 738 1 6 4 10
60 10 145 0 138 0 140 -24 146 -13 3 -32 4 -42 2 -16 -2 -20 4 -22 40 -2 23
-6 43 -10 43 -34 6 -492 5 -508 -1z m126 -53 l0 -33 -52 1 c-60 0 -78 8 -78
34 0 27 9 31 72 31 l58 0 0 -33z m30 -2 c0 -19 -4 -35 -10 -35 -5 0 -10 16
-10 35 0 19 5 35 10 35 6 0 10 -16 10 -35z m115 24 c-4 -6 -26 -9 -49 -7 -39
2 -41 1 -38 -25 2 -15 -1 -27 -7 -27 -6 0 -11 16 -11 35 l0 35 56 0 c36 0 53
-4 49 -11z m155 -24 c0 -31 -3 -35 -25 -35 -22 0 -25 4 -25 35 0 31 3 35 25
35 22 0 25 -4 25 -35z m70 0 c0 -19 -4 -35 -10 -35 -5 0 -10 16 -10 35 0 19 5
35 10 35 6 0 10 -16 10 -35z m-390 -80 c0 -19 -4 -35 -10 -35 -5 0 -10 16 -10
35 0 19 5 35 10 35 6 0 10 -16 10 -35z m258 -12 c-2 -40 1 -51 20 -67 l23 -18
-20 -22 c-13 -13 -21 -39 -24 -71 l-3 -50 -2 52 c-2 44 -6 55 -27 69 l-26 17
27 28 c22 23 26 35 22 68 -2 23 0 41 5 41 4 0 7 -21 5 -47z m-471 -160 c-2
-38 -3 -7 -3 67 0 74 1 105 3 68 2 -38 2 -98 0 -135z m183 187 c0 -6 -34 -11
-77 -12 l-78 -2 78 -3 c99 -5 101 -23 2 -23 l-75 0 0 -70 0 -70 75 0 c43 0 75
-4 75 -10 0 -6 -32 -10 -77 -10 -42 0 -73 -3 -69 -7 4 -4 38 -6 77 -4 42 2 69
-1 69 -7 0 -6 -35 -12 -80 -14 l-80 -3 0 123 0 122 80 0 c47 0 80 -4 80 -10z
m260 0 c0 -5 -21 -11 -47 -12 l-48 -2 48 -3 c90 -7 47 -23 -63 -23 -67 0 -110
4 -110 10 0 6 28 11 63 12 l62 2 -62 3 c-106 6 -71 23 47 23 67 0 110 -4 110
-10z m210 -112 l0 -123 -80 3 c-44 2 -80 8 -80 13 0 5 35 10 78 11 l77 2 -77
3 c-100 5 -102 23 -3 23 l75 0 0 70 0 70 -75 0 c-100 0 -98 19 3 22 l77 2 -77
3 c-103 5 -101 23 2 23 l80 0 0 -122z m27 -75 c-2 -38 -3 -7 -3 67 0 74 1 105
3 68 2 -38 2 -98 0 -135z m-410 45 c-2 -18 -4 -6 -4 27 0 33 2 48 4 33 2 -15
2 -42 0 -60z m-27 32 l0 -40 -85 0 -85 0 0 40 0 40 85 0 85 0 0 -40z m120 15
c10 -13 9 -19 -5 -35 -17 -19 -19 -19 -37 -3 -17 15 -17 17 -2 35 21 22 28 22
44 3z m236 -34 c-22 -21 -46 0 -26 24 10 12 16 13 27 3 12 -10 12 -13 -1 -27z
m-386 -76 c0 -19 -4 -35 -10 -35 -5 0 -10 16 -10 35 0 19 5 35 10 35 6 0 10
-16 10 -35z m230 15 c0 -6 -43 -10 -110 -10 -67 0 -110 4 -110 10 0 6 43 10
110 10 67 0 110 -4 110 -10z m0 -30 c0 -6 -43 -10 -110 -10 -67 0 -110 4 -110
10 0 6 43 10 110 10 67 0 110 -4 110 -10z"/>
<path d="M460 1570 c0 -12 27 -12 55 0 16 7 13 9 -17 9 -21 1 -38 -3 -38 -9z"/>
<path d="M783 1404 c-8 -21 13 -42 28 -27 13 13 5 43 -11 43 -6 0 -13 -7 -17
-16z"/>
<path d="M1126 1598 c-3 -13 -6 -112 -6 -220 0 -191 1 -198 20 -198 11 0 20 5
20 11 0 5 -5 7 -11 4 -7 -5 -9 59 -7 209 3 202 -1 248 -16 194z"/>
<path d="M2737 1603 c-4 -3 -7 -105 -7 -225 l0 -218 -111 0 c-61 0 -119 -5
-130 -10 -13 -7 -19 -7 -19 0 0 6 -42 10 -115 10 l-115 0 0 -285 0 -285 195 0
c167 0 195 2 195 15 0 13 -24 15 -159 15 -194 0 -202 4 -211 99 -3 34 -4 64
-2 66 2 2 3 64 3 137 -2 123 0 136 19 161 l21 27 199 0 c194 0 199 -1 214 -22
9 -12 16 -35 16 -50 0 -18 5 -28 15 -28 13 0 15 34 15 248 0 163 -4 242 -10
232 -6 -9 -10 -10 -10 -3 0 6 5 15 10 18 6 3 10 28 10 56 0 46 -7 59 -23 42z"/>
<path d="M1200 1566 c0 -14 5 -26 10 -26 6 0 10 7 10 15 0 8 0 18 1 22 0 4 -4
9 -10 11 -6 2 -11 -8 -11 -22z"/>
<path d="M1288 1584 c-8 -8 3 -44 13 -44 5 0 9 11 9 25 0 24 -10 32 -22 19z"/>
<path d="M1324 1575 c-7 -18 4 -51 13 -41 3 3 8 17 9 31 3 27 -13 34 -22 10z"/>
<path d="M1360 1561 c0 -21 4 -29 14 -25 16 6 16 46 -1 52 -9 2 -13 -7 -13
-27z"/>
<path d="M1432 1565 c2 -14 6 -25 11 -25 4 0 131 0 283 0 l275 0 -3 23 -3 22
-283 3 -283 2 3 -25z"/>
<path d="M2143 1574 c-10 -4 -13 -40 -13 -130 0 -104 3 -126 16 -131 8 -3 20
-1 27 6 8 8 7 11 -6 11 -15 0 -17 13 -17 115 l0 116 273 -3 272 -3 0 -110 0
-110 -252 -3 c-143 -1 -253 -6 -253 -11 0 -5 -11 -22 -24 -38 -14 -16 -27 -43
-31 -59 -5 -26 -4 -26 5 -6 5 12 22 38 37 57 l28 35 246 0 c177 0 248 3 257
12 8 8 12 49 12 118 0 89 -3 109 -17 122 -15 14 -58 16 -283 16 -146 1 -271
-2 -277 -4z"/>
<path d="M2223 1530 c-59 -35 -62 -139 -5 -169 12 -6 76 -11 147 -11 123 0
127 1 150 26 34 37 41 78 18 117 -28 48 -55 57 -173 57 -87 0 -111 -3 -137
-20z m172 -20 c6 -10 -31 -49 -47 -50 -4 0 -10 9 -13 20 -4 11 -11 18 -16 15
-5 -4 -9 1 -9 9 0 12 10 16 39 16 22 0 43 -5 46 -10z m-83 -50 c22 -1 22 -1 5
-14 -15 -12 -17 -18 -7 -36 15 -28 6 -37 -15 -16 -20 19 -27 20 -44 4 -10 -11
-12 -9 -9 8 1 11 -3 28 -11 37 -12 15 -11 17 7 17 13 0 23 9 28 22 l7 23 8
-23 c5 -14 17 -22 31 -22z m138 14 c0 -8 9 -14 21 -14 18 0 19 -2 9 -15 -7 -8
-10 -24 -7 -35 6 -22 -3 -26 -20 -9 -8 8 -17 8 -33 -1 -20 -11 -21 -10 -15 10
5 15 1 26 -12 35 -17 14 -17 14 5 15 15 0 26 7 29 20 6 22 23 18 23 -6z"/>
<path d="M2050 1356 c0 -122 -3 -166 -12 -169 -8 -3 -6 -6 5 -6 16 -1 17 13
17 169 0 94 -2 170 -5 170 -3 0 -5 -74 -5 -164z"/>
<path d="M1200 1500 c0 -6 35 -10 86 -10 54 0 83 4 79 10 -3 6 -42 10 -86 10
-46 0 -79 -4 -79 -10z"/>
<path d="M1432 1499 c3 -9 210 -12 546 -9 6 0 12 5 12 10 0 6 -100 10 -281 10
-194 0 -280 -3 -277 -11z"/>
<path d="M1207 1473 c-4 -3 -7 -55 -7 -115 l0 -108 80 0 80 0 0 115 0 115 -73
0 c-41 0 -77 -3 -80 -7z m81 -49 c28 -19 28 -32 0 -61 l-21 -23 24 0 c31 0 49
-17 49 -47 0 -28 -16 -30 -30 -4 -13 26 -44 35 -70 21 -26 -14 -26 0 0 33 24
31 26 53 4 65 -18 10 -11 32 9 32 7 0 23 -7 35 -16z"/>
<path d="M2595 1464 c-18 -19 -16 -33 7 -48 12 -7 21 -6 32 3 22 18 20 38 -3
51 -15 7 -24 6 -36 -6z"/>
<path d="M1859 1391 c-32 -33 -36 -58 -14 -100 19 -39 64 -52 110 -35 19 8 45
55 45 84 0 31 -53 80 -85 80 -16 0 -38 -12 -56 -29z m97 -31 c18 -1 18 -2 2
-14 -12 -8 -15 -20 -11 -37 6 -22 5 -23 -11 -10 -14 12 -21 12 -38 2 -18 -11
-19 -10 -13 9 4 12 1 27 -5 35 -10 12 -9 15 4 15 9 0 19 7 23 16 6 16 7 16 18
0 7 -9 21 -16 31 -16z"/>
<path d="M1437 1403 c-4 -3 -7 -39 -7 -79 l0 -73 206 -1 c161 0 205 3 202 12
-4 10 -49 13 -186 13 l-182 0 0 53 0 52 179 0 c146 0 181 3 191 15 11 13 -11
15 -192 15 -113 0 -208 -3 -211 -7z"/>
<path d="M1495 1360 c-4 -6 8 -11 27 -11 l33 -2 -35 -7 -35 -7 30 -3 30 -2
-30 -8 -30 -8 37 -1 c32 -1 37 2 35 22 0 12 -6 25 -12 29 -15 11 -43 10 -50
-2z"/>
<path d="M2017 1296 c-4 -27 -12 -55 -18 -63 -16 -19 -8 -24 14 -8 14 10 17
24 15 67 l-3 53 -8 -49z"/>
<path d="M2271 1277 c-17 -17 -13 -27 8 -27 25 0 32 12 16 27 -9 8 -15 9 -24
0z"/>
<path d="M2434 1277 c-15 -17 -6 -37 17 -37 20 0 23 8 13 34 -7 19 -15 20 -30
3z"/>
<path d="M2674 1255 l-26 -35 -249 0 c-159 0 -249 -4 -249 -10 0 -8 255 -16
477 -14 48 0 79 20 63 39 -8 10 -6 15 9 20 22 7 27 20 12 30 -5 3 -22 -10 -37
-30z"/>
<path d="M2346 1272 c-2 -4 -1 -14 4 -22 7 -11 12 -12 21 -3 6 6 8 16 5 22 -8
13 -23 14 -30 3z"/>
<path d="M380 1194 c0 -22 4 -25 28 -22 19 2 28 9 30 26 3 19 -1 22 -27 22
-27 0 -31 -4 -31 -26z"/>
<path d="M470 1201 c0 -20 32 -37 50 -26 5 3 10 15 10 26 0 14 -7 19 -30 19
-23 0 -30 -5 -30 -19z"/>
<path d="M562 1198 c2 -17 10 -23 28 -23 18 0 26 6 28 23 3 19 -1 22 -28 22
-27 0 -31 -3 -28 -22z"/>
<path d="M650 1194 c0 -22 4 -25 28 -22 19 2 28 9 30 26 3 19 -1 22 -27 22
-27 0 -31 -4 -31 -26z"/>
<path d="M750 1210 c12 -8 13 -12 2 -19 -11 -6 -10 -10 3 -15 32 -12 45 -6 45
19 0 22 -4 25 -32 25 -25 0 -29 -3 -18 -10z"/>
<path d="M832 1198 c4 -31 53 -38 61 -9 6 26 0 31 -35 31 -25 0 -29 -4 -26
-22z"/>
<path d="M922 1198 c2 -17 11 -24 31 -26 23 -3 27 0 27 22 0 22 -4 26 -31 26
-26 0 -30 -3 -27 -22z"/>
<path d="M1190 1190 c0 -5 25 -10 55 -10 30 0 55 5 55 10 0 6 -25 10 -55 10
-30 0 -55 -4 -55 -10z"/>
<path d="M1330 1190 c0 -5 25 -10 55 -10 30 0 55 5 55 10 0 6 -25 10 -55 10
-30 0 -55 -4 -55 -10z"/>
<path d="M1465 1190 c-4 -7 87 -10 264 -10 174 0 271 4 271 10 0 6 -95 10
-264 10 -166 0 -267 -4 -271 -10z"/>
<path d="M830 1006 l0 -154 -30 -29 c-28 -28 -29 -29 -8 -30 13 -1 26 3 30 10
4 7 8 -39 8 -100 l0 -113 695 0 694 0 3 228 c2 125 2 253 0 284 l-3 57 -184 1
c-133 0 -185 -3 -185 -11 0 -8 -4 -8 -12 -2 -8 7 -201 11 -510 11 l-498 1 0
-153z m434 82 c13 -19 16 -58 16 -225 0 -263 18 -243 -214 -243 -238 0 -221
-18 -221 232 0 191 5 235 28 250 7 4 94 8 194 8 177 0 182 -1 197 -22z m421 2
c17 -19 19 -40 18 -227 0 -261 14 -243 -191 -243 -136 0 -147 1 -169 22 -18
17 -23 32 -23 75 0 38 -4 55 -15 59 -8 4 -15 11 -15 16 0 6 7 8 15 4 13 -5 15
14 15 132 0 192 -10 182 189 182 146 0 159 -2 176 -20z m501 -1 c17 -19 19
-38 18 -226 0 -264 20 -243 -235 -243 -128 0 -189 3 -189 11 0 6 -7 17 -15 25
-12 13 -15 51 -15 215 0 186 1 200 20 219 19 19 33 20 208 20 179 0 190 -1
208 -21z"/>
<path d="M1007 1024 c-4 -4 -7 -31 -7 -61 l0 -53 58 0 58 0 0 58 -1 57 -50 3
c-28 2 -54 0 -58 -4z m93 -74 c0 -5 -18 -10 -39 -10 -22 0 -43 5 -46 10 -4 6
12 10 39 10 25 0 46 -4 46 -10z"/>
<path d="M1130 847 c0 -101 2 -186 4 -188 3 -2 24 -3 48 -1 l43 4 0 181 0 182
-47 3 -48 3 0 -184z m80 143 c0 -5 -13 -10 -30 -10 -16 0 -30 5 -30 10 0 6 14
10 30 10 17 0 30 -4 30 -10z m-4 -145 l2 -85 -29 0 -29 0 0 85 0 85 28 0 27 0
1 -85z m-1 -105 c4 -6 -7 -10 -24 -10 -17 0 -31 5 -31 10 0 6 11 10 24 10 14
0 28 -4 31 -10z m-20 -30 c-23 -6 -25 -8 -8 -9 35 -2 38 -21 4 -21 -24 0 -31
4 -31 20 0 16 6 20 33 19 l32 -1 -30 -8z"/>
<path d="M1250 824 c0 -107 3 -163 10 -159 6 4 10 70 10 166 0 99 -4 159 -10
159 -6 0 -10 -62 -10 -166z"/>
<path d="M905 970 c-7 -11 -4 -310 3 -311 4 0 22 -1 40 -2 l32 -2 0 156 0 157
-36 4 c-19 2 -37 2 -39 -2z"/>
<path d="M874 790 c0 -74 1 -105 3 -67 2 37 2 97 0 135 -2 37 -3 6 -3 -68z"/>
<path d="M1000 776 c0 -63 3 -117 8 -119 4 -2 30 -2 58 1 45 3 51 6 47 22 -4
15 -17 20 -57 23 l-51 3 53 2 52 2 0 80 c0 44 0 83 0 88 0 4 -25 8 -55 10
l-55 3 0 -115z m77 45 c1 -11 -5 -25 -13 -31 -11 -10 -16 -8 -23 11 -10 29 -6
39 17 39 10 0 18 -8 19 -19z m23 -71 c0 -5 -5 -10 -11 -10 -5 0 -7 -4 -4 -10
4 -6 -9 -10 -32 -9 -38 1 -38 1 -8 9 l30 8 -35 1 c-27 1 -31 4 -20 11 20 13
80 13 80 0z"/>
<path d="M1470 1003 c-63 -24 -108 -102 -96 -167 9 -47 48 -92 92 -106 43 -14
48 -11 35 24 -7 17 -7 26 -1 26 6 0 13 -13 17 -30 3 -16 10 -30 15 -30 20 0
67 31 92 60 31 38 36 115 9 160 -30 51 -111 82 -163 63z m108 -83 c23 10 42
17 42 15 0 -3 -17 -20 -37 -38 -35 -33 -36 -35 -23 -66 17 -41 9 -47 -20 -16
l-23 25 -34 -26 c-38 -29 -38 -28 -19 17 15 34 14 34 -27 71 l-42 38 47 -19
c50 -21 58 -19 58 15 0 12 3 31 7 41 5 13 10 6 17 -29 l11 -47 43 19z"/>
<path d="M1348 743 c-10 -2 -18 -9 -18 -15 0 -5 7 -7 16 -4 9 3 27 6 40 6 14
0 22 4 19 10 -6 10 -26 11 -57 3z"/>
<path d="M1824 1071 c-11 -11 -3 -69 11 -75 8 -3 15 -10 15 -16 0 -8 -6 -8
-20 0 -14 7 -20 7 -20 0 0 -5 5 -10 10 -10 6 0 10 -7 10 -16 0 -12 -6 -15 -21
-11 -17 4 -19 3 -10 -6 16 -16 14 -40 -4 -33 -8 3 -15 1 -15 -3 0 -5 6 -11 13
-14 9 -3 9 -9 -1 -26 -10 -18 -10 -21 3 -21 18 0 19 -11 3 -29 -11 -11 -10
-13 4 -8 25 9 33 -11 12 -34 -9 -10 -12 -19 -6 -19 6 0 14 5 17 10 3 6 11 10
17 10 6 0 3 -9 -6 -19 -11 -12 -16 -31 -14 -52 3 -32 5 -33 47 -34 34 -1 45 3
49 17 6 23 32 24 33 1 0 -11 3 -13 6 -5 6 16 40 16 46 0 3 -8 6 -6 6 5 1 23
28 22 36 -2 5 -16 14 -19 48 -16 40 3 42 4 45 39 2 26 -1 38 -12 42 -9 3 -16
10 -16 15 0 6 9 5 20 -1 14 -7 20 -7 20 0 0 5 -4 10 -10 10 -21 0 -9 30 13 31
12 0 16 3 10 6 -19 7 -16 33 3 33 13 0 14 3 5 14 -9 11 -10 20 -1 35 9 17 8
20 -5 15 -18 -7 -20 17 -4 33 9 9 7 10 -10 6 -15 -4 -21 -1 -21 11 0 9 5 16
10 16 6 0 10 5 10 10 0 7 -6 7 -20 0 -24 -13 -28 4 -4 18 10 6 14 19 12 41 -3
32 -5 33 -46 35 -37 2 -43 -1 -48 -20 -7 -25 -34 -22 -34 4 0 13 -3 12 -15 -4
-15 -19 -15 -19 -30 0 -13 17 -15 18 -15 3 0 -20 -26 -23 -33 -3 -5 13 -82 27
-93 17z m265 -96 c1 -31 -2 -45 -11 -45 -20 0 -35 13 -42 38 -4 12 -12 19 -18
16 -7 -5 -8 -2 -3 5 4 7 18 11 31 8 13 -2 21 -1 19 4 -3 4 1 10 7 12 7 3 13 6
14 6 0 1 1 -19 3 -44z m-189 22 c0 5 13 8 29 5 29 -4 29 -4 12 -33 -26 -48
-89 -53 -72 -6 4 12 6 29 3 37 -5 13 -3 13 11 1 10 -7 17 -9 17 -4z m168 -102
c29 1 52 -2 52 -5 0 -3 -20 -16 -44 -29 -38 -20 -44 -26 -37 -45 5 -11 11 -34
15 -50 l7 -28 -40 32 -41 32 -37 -31 c-20 -17 -38 -29 -40 -27 -2 1 4 19 12
39 21 51 20 54 -25 77 -22 11 -40 24 -40 28 0 4 22 5 49 4 l50 -4 17 59 17 58
17 -55 16 -55 52 0z"/>
<path d="M333 1065 c-22 -16 -23 -21 -23 -196 0 -237 -18 -219 225 -219 l185
0 -2 213 -3 212 -180 3 c-151 2 -184 0 -202 -13z m145 -11 c-10 -9 -127 -11
-122 -2 3 4 33 8 66 8 34 0 59 -3 56 -6z m222 -4 c0 -5 -18 -9 -40 -8 -22 1
-40 5 -40 10 0 4 18 8 40 8 22 0 40 -4 40 -10z m-60 -70 c0 -22 5 -40 10 -40
6 0 10 -3 10 -7 0 -5 -34 -9 -75 -11 -49 -2 -75 0 -75 7 0 7 23 11 55 11 54 0
55 0 55 30 l0 30 -110 0 c-61 0 -110 -4 -110 -9 0 -5 8 -12 18 -14 10 -3 6 -5
-10 -6 -23 -1 -28 3 -28 24 l0 25 130 0 130 0 0 -40z m-292 -133 c2 -78 -1
-127 -7 -127 -6 0 -11 54 -13 130 -2 84 1 129 7 127 6 -2 11 -57 13 -130z
m262 118 c0 -12 -16 -15 -80 -15 -64 0 -80 3 -80 15 0 12 16 15 80 15 64 0 80
-3 80 -15z m-210 -110 c0 -57 -4 -95 -10 -95 -6 0 -10 38 -10 95 0 57 4 95 10
95 6 0 10 -38 10 -95z m103 59 c72 -8 85 -19 89 -79 l3 -53 -76 -1 -77 -1 -4
37 c-6 50 2 114 14 107 5 -3 28 -8 51 -10z m137 -69 c0 -43 -4 -75 -10 -75 -6
0 -10 32 -10 75 0 43 4 75 10 75 6 0 10 -32 10 -75z m60 -30 c0 -8 -9 -15 -20
-15 -11 0 -20 7 -20 15 0 8 9 15 20 15 11 0 20 -7 20 -15z m-60 -95 l0 -40
-130 0 -130 0 0 35 c0 19 5 35 10 35 6 0 10 -11 10 -25 l0 -25 110 0 c81 0
110 3 110 13 0 9 -25 11 -100 9 -85 -3 -100 -1 -100 12 0 13 19 16 103 19 56
1 105 4 110 5 4 1 7 -16 7 -38z"/>
<path d="M2697 1010 c-4 -34 -3 -69 2 -77 5 -11 10 4 15 46 4 33 3 68 -2 77
-6 11 -11 -2 -15 -46z"/>
<path d="M2320 1054 c76 -14 118 -28 146 -49 31 -24 32 -24 49 -5 16 18 77 42
135 54 14 3 -1 3 -33 1 -43 -3 -67 -10 -90 -28 l-32 -24 -34 25 c-27 21 -46
27 -100 28 -36 2 -55 1 -41 -2z"/>
<path d="M2328 994 c-5 -4 -8 -15 -8 -25 0 -9 -7 -19 -15 -23 -12 -4 -15 -22
-13 -78 l2 -73 6 70 7 70 -1 -80 c-1 -44 -5 -88 -10 -97 -7 -16 0 -18 70 -19
44 0 95 -1 114 -2 19 -1 76 0 127 1 l92 2 -11 33 c-12 35 -28 58 -28 40 0 -9
-8 -9 -31 -1 -28 10 -67 8 -114 -6 -11 -4 -4 1 15 10 24 11 50 14 83 11 l47
-6 2 57 1 57 7 -55 7 -55 1 62 c1 34 -2 65 -8 68 -5 3 -10 15 -10 27 0 19 -4
20 -51 14 -29 -4 -66 -13 -83 -20 -25 -10 -37 -10 -62 0 -39 16 -127 28 -136
18z m132 -34 c15 -8 20 -21 20 -50 0 -22 5 -40 10 -40 6 0 10 18 10 40 0 35 4
42 28 51 15 6 48 13 74 16 l46 6 -1 -71 -1 -70 -55 -4 c-31 -2 -65 -8 -75 -13
-16 -7 -18 -5 -14 13 4 16 2 22 -9 22 -11 0 -14 -6 -10 -21 4 -17 2 -19 -11
-13 -9 5 -43 9 -74 9 l-58 0 0 74 0 74 50 -6 c27 -3 59 -11 70 -17z m13 -150
c9 -10 7 -11 -13 -4 -14 4 -41 11 -60 15 -31 7 -29 8 13 5 27 -2 54 -9 60 -16z
m-24 -11 c17 -6 31 -15 31 -21 0 -5 -4 -7 -9 -4 -4 3 -21 0 -38 -6 -30 -11
-103 -4 -103 11 0 11 40 29 66 30 12 1 35 -4 53 -10z m189 -2 l23 -13 -25 -13
c-15 -9 -38 -11 -63 -7 -21 3 -46 6 -55 7 -27 0 -22 8 15 24 40 18 75 18 105
2z"/>
<path d="M2360 961 c0 -6 13 -11 29 -11 16 0 41 -4 55 -10 16 -6 26 -6 26 0 0
5 -17 12 -37 15 -21 4 -46 9 -55 12 -10 2 -18 0 -18 -6z"/>
<path d="M2590 963 c-53 -8 -70 -14 -70 -23 0 -6 9 -6 26 0 14 6 39 10 55 10
16 0 29 5 29 10 0 6 -3 9 -7 9 -5 -1 -19 -3 -33 -6z"/>
<path d="M2360 931 c0 -6 15 -11 33 -11 17 0 43 -3 57 -6 18 -4 21 -3 10 4
-24 16 -100 25 -100 13z"/>
<path d="M2565 933 c-16 -3 -34 -9 -40 -15 -7 -7 -2 -9 15 -4 14 3 40 6 58 6
17 0 32 5 32 10 0 10 -10 11 -65 3z"/>
<path d="M2360 901 c0 -6 18 -11 39 -11 22 0 48 -3 58 -6 12 -5 15 -4 8 3 -15
15 -105 27 -105 14z"/>
<path d="M2558 903 c-30 -3 -38 -9 -38 -24 0 -16 7 -19 55 -19 34 0 55 4 55
11 0 8 -17 10 -50 7 -27 -3 -47 -1 -44 4 3 4 25 8 50 8 24 0 44 5 44 10 0 6
-8 9 -17 8 -10 -1 -35 -3 -55 -5z"/>
<path d="M2360 871 c0 -5 23 -11 50 -13 52 -3 67 5 28 16 -34 9 -78 7 -78 -3z"/>
<path d="M2543 778 c7 -4 26 -8 42 -8 17 0 35 4 42 8 6 4 -13 7 -42 7 -29 0
-48 -3 -42 -7z"/>
<path d="M2730 865 c0 -117 -2 -135 -17 -145 -17 -11 -17 -11 0 -6 10 3 25 6
33 6 11 0 14 26 14 140 0 118 -2 140 -15 140 -13 0 -15 -22 -15 -135z"/>
<path d="M220 781 c0 -52 3 -61 18 -61 16 0 18 8 17 58 -1 44 -5 58 -18 60
-14 3 -17 -6 -17 -57z"/>
<path d="M790 720 c0 -41 -5 -56 -25 -75 -24 -25 -25 -25 -220 -25 -167 0
-195 -2 -195 -15 0 -13 32 -15 230 -15 l230 0 0 90 c0 53 -4 90 -10 90 -5 0
-10 -23 -10 -50z"/>
<path d="M2398 703 c57 -2 147 -2 200 0 53 1 7 3 -103 3 -110 0 -154 -2 -97
-3z"/>
<path d="M2283 678 c-2 -5 83 -7 189 -6 193 2 172 5 -60 10 -68 2 -126 0 -129
-4z"/>
<path d="M1458 2213 l-148 -4 0 -37 c1 -77 39 -143 95 -168 28 -12 23 -13 -60
-14 l-90 0 32 -32 c27 -27 42 -33 100 -40 81 -9 198 0 233 17 14 7 34 22 44
34 l19 21 -89 1 c-78 1 -86 2 -62 13 15 6 40 23 55 37 16 14 43 32 61 39 38
15 52 36 52 78 0 36 -22 56 -55 50 -14 -3 -25 -1 -25 3 0 5 -3 8 -7 7 -5 -1
-74 -4 -155 -5z m126 -53 c10 -40 -1 -70 -39 -107 -28 -27 -39 -46 -40 -68 0
-25 -4 -31 -28 -33 -35 -4 -62 15 -47 34 13 15 -6 51 -30 59 -15 5 -42 55 -47
88 -6 35 16 42 123 42 84 0 105 -3 108 -15z m94 -2 c3 -17 -30 -58 -48 -58
-11 0 -14 63 -3 74 13 12 48 2 51 -16z"/>
<path d="M1800 2205 c-12 -14 -6 -20 15 -15 6 2 50 4 98 5 130 3 133 22 4 24
-82 1 -107 -2 -117 -14z"/>
<path d="M2040 2210 c0 -5 6 -10 13 -10 6 0 30 -2 52 -5 l40 -5 -30 14 c-35
17 -75 20 -75 6z"/>
<path d="M2395 2204 l-30 -15 34 6 c18 3 40 5 47 5 8 0 14 5 14 10 0 14 -29
11 -65 -6z"/>
<path d="M2505 2205 c39 -18 70 -18 84 -2 8 11 -1 14 -52 14 -60 1 -61 1 -32
-12z"/>
<path d="M2615 2210 c-3 -5 0 -10 8 -10 8 0 29 -3 47 -7 24 -4 31 -3 26 6 -4
6 -11 9 -16 6 -5 -3 -11 -1 -15 5 -8 13 -42 13 -50 0z"/>
<path d="M1891 2126 c-9 -23 -15 -27 -36 -22 -30 8 -33 -9 -5 -24 16 -9 18
-15 10 -36 -14 -36 -13 -38 16 -19 24 15 27 15 51 0 l25 -17 -7 31 c-5 24 -2
33 14 43 30 18 26 31 -7 23 -24 -5 -29 -2 -38 22 l-11 28 -12 -29z"/>
<path d="M2061 2124 c-9 -21 -16 -25 -36 -20 -30 8 -33 -4 -4 -22 16 -10 19
-19 14 -43 l-7 -31 27 18 c19 13 29 14 38 5 21 -21 37 -13 27 14 -8 20 -6 27
10 35 28 15 25 32 -5 24 -20 -5 -25 -2 -31 20 -8 33 -18 33 -33 0z"/>
<path d="M2241 2126 c-9 -23 -15 -27 -36 -22 -30 8 -33 -9 -5 -24 16 -9 18
-15 10 -36 -14 -36 -13 -38 16 -19 24 15 27 15 51 0 l26 -17 -7 27 c-5 21 -2
33 16 52 l23 25 -30 -6 c-27 -6 -32 -3 -41 21 l-11 28 -12 -29z"/>
<path d="M2416 2124 c-6 -23 -10 -25 -39 -19 l-32 7 24 -25 c18 -20 22 -32 17
-53 l-7 -27 26 17 c25 16 28 16 52 1 l25 -17 -7 31 c-5 26 -2 35 17 52 l23 20
-31 -6 c-28 -5 -32 -3 -38 19 -8 33 -22 33 -30 0z"/>
<path d="M2586 2124 c-6 -22 -11 -25 -31 -20 -30 8 -33 -9 -5 -24 16 -8 18
-15 10 -35 -10 -27 6 -35 27 -14 8 8 17 8 31 0 30 -16 32 -14 26 18 -4 20 -2
30 10 34 26 10 19 28 -9 21 -20 -5 -25 -2 -31 20 -3 14 -10 26 -14 26 -4 0
-11 -12 -14 -26z"/>
<path d="M1822 1918 c-7 -7 -12 -45 -12 -95 l0 -83 440 0 440 0 0 89 c0 73 -3
90 -16 95 -9 3 -202 6 -429 6 -299 -1 -415 -4 -423 -12z m413 -52 c30 -30 22
-66 -19 -81 -32 -11 -55 0 -67 34 -7 17 -3 28 16 47 13 13 29 24 35 24 6 0 22
-11 35 -24z m293 2 c29 -24 0 -88 -41 -88 -26 0 -57 28 -57 52 0 10 9 27 21
39 20 20 48 19 77 -3z m144 -14 c14 -31 -13 -74 -46 -74 -33 0 -60 33 -52 65
12 47 78 53 98 9z m-752 6 c17 -17 18 -24 10 -41 -15 -27 -34 -33 -59 -19 -25
13 -27 42 -5 64 20 21 30 20 54 -4z m158 -11 c2 -18 -3 -29 -14 -33 -27 -11
-54 3 -54 28 0 30 9 38 40 34 19 -2 26 -10 28 -29z m282 16 c24 22 39 12 22
-15 -10 -16 -10 -24 0 -40 17 -27 2 -37 -22 -15 -19 17 -21 17 -39 1 -13 -12
-21 -14 -26 -6 -4 6 1 18 11 26 19 14 19 14 0 28 -10 8 -15 20 -11 26 5 8 13
6 26 -6 18 -16 20 -16 39 1z m-360 -65 c10 -10 16 -21 12 -23 -16 -9 -82 -6
-82 4 0 6 5 7 10 4 6 -3 10 0 10 9 0 12 8 19 28 25 1 1 11 -8 22 -19z"/>
<path d="M1874 1845 c-7 -18 3 -35 21 -35 18 0 26 15 19 34 -8 20 -33 21 -40
1z"/>
<path d="M180 1849 c0 -244 3 -368 10 -364 6 4 10 138 10 371 0 236 -4 364
-10 364 -6 0 -10 -130 -10 -371z"/>
<path d="M180 1301 c0 -103 -4 -172 -10 -176 -6 -3 -10 -10 -10 -16 0 -5 9 -4
20 3 19 12 20 24 20 185 0 109 -4 173 -10 173 -6 0 -10 -63 -10 -169z"/>
</g>
</svg>
