<?xml version="1.0" standalone="no"?>
<!DOCTYPE svg PUBLIC "-//W3C//DTD SVG 20010904//EN"
 "http://www.w3.org/TR/2001/REC-SVG-20010904/DTD/svg10.dtd">
<svg version="1.0" xmlns="http://www.w3.org/2000/svg"
 width="300.000000pt" height="300.000000pt" viewBox="0 0 300.000000 300.000000"
 preserveAspectRatio="xMidYMid meet">
<metadata>
Created by potrace 1.10, written by Peter Selinger 2001-2011
</metadata>
<g transform="translate(0.000000,300.000000) scale(0.100000,-0.100000)"
fill="#000000" stroke="none">
<path d="M1427 2409 c-20 -11 -49 -39 -63 -62 -41 -66 -44 -67 -182 -67 -123
0 -154 -7 -179 -39 -10 -12 -12 -200 -13 -804 l0 -789 29 -29 29 -29 471 0
470 0 26 23 c14 12 29 38 34 57 4 19 7 375 7 790 -1 816 1 784 -53 809 -13 6
-80 11 -149 11 -118 0 -127 1 -144 23 -71 84 -88 101 -117 113 -46 20 -121 17
-166 -7z m96 -23 c-4 -7 -1 -6 9 1 8 7 18 9 22 5 4 -4 11 -7 15 -7 11 0 92
-67 87 -72 -9 -9 35 -44 47 -37 7 4 9 3 4 -1 -4 -5 0 -16 8 -25 11 -12 12 -17
3 -17 -7 -1 -28 -4 -46 -8 -32 -8 -33 -7 -27 24 4 22 2 30 -7 29 -8 -2 -12 5
-10 15 5 28 -48 69 -106 81 -40 9 -48 21 -16 22 15 1 21 -2 17 -10z m-42 -13
c7 -7 5 -10 -8 -10 -34 0 -44 -3 -39 -12 3 -5 -1 -11 -9 -15 -8 -3 -17 0 -21
7 -4 7 -4 9 0 5 9 -7 45 23 39 34 -5 10 26 3 38 -9z m99 -51 c14 -9 27 -16 30
-15 10 3 10 -83 -1 -109 -22 -53 -99 -76 -143 -43 -16 12 -22 12 -29 2 -5 -7
-6 -4 -2 10 3 12 1 24 -5 28 -5 3 -10 25 -10 49 0 31 6 48 23 64 46 43 86 47
137 14z m-190 -32 c0 -4 -3 -22 -6 -39 -5 -25 -9 -29 -20 -20 -7 6 -19 7 -25
3 -7 -4 -9 -3 -5 4 3 5 0 13 -6 15 -8 4 -7 6 4 6 9 1 19 9 22 19 6 18 36 27
36 12z m-12 -123 c36 -81 113 -121 186 -97 39 13 103 80 108 114 3 20 9 21
144 24 110 2 144 -1 152 -11 14 -17 17 -1506 4 -1519 -15 -15 -895 -10 -903 4
-4 7 -7 347 -7 756 1 627 3 746 15 758 11 11 46 14 148 14 l134 0 19 -43z
m641 -69 c1 7 5 11 9 8 10 -6 8 -72 -3 -98 -4 -11 -3 -18 5 -18 6 0 8 -4 5
-10 -11 -18 -23 -10 -21 13 2 13 6 28 9 34 3 5 -1 22 -9 37 -7 16 -14 36 -13
45 0 12 2 12 9 -4 5 -11 9 -14 9 -7z m17 -242 l7 -28 -27 17 c-28 19 -33 26
-13 23 7 -2 11 5 9 17 -5 30 15 6 24 -29z m0 -89 c1 -25 -1 -46 -5 -45 -19 2
-24 -3 -11 -12 17 -11 23 -110 6 -110 -6 0 -5 -5 2 -12 8 -8 9 -15 1 -25 -9
-9 -8 -13 0 -13 7 0 9 -4 6 -10 -13 -22 -24 -8 -21 28 2 20 -2 43 -8 51 -8 11
-8 13 0 8 7 -4 15 0 18 9 3 8 2 13 -3 10 -5 -3 -12 2 -15 11 -4 9 -1 20 5 24
7 4 8 12 3 20 -11 18 -12 59 -1 59 4 0 5 5 2 10 -3 6 -1 10 5 10 6 0 8 5 5 10
-4 6 -11 8 -16 5 -5 -3 -6 1 -3 10 12 30 28 9 30 -38z m-6 -256 c5 7 8 -5 7
-28 -1 -23 -6 -38 -11 -35 -5 3 -7 -2 -3 -11 4 -11 1 -17 -9 -17 -11 0 -12 5
-6 18 5 9 8 33 6 52 -2 19 -1 29 2 21 5 -11 8 -11 14 0z m4 -148 c-1 -21 -3
-42 -3 -46 -1 -5 -6 -5 -11 -2 -6 4 -8 11 -5 16 4 5 0 9 -7 10 -10 0 -10 2 0
6 6 2 12 11 12 18 0 7 -6 16 -12 18 -8 3 -5 6 5 6 11 1 15 6 11 13 -4 6 -3 8
3 5 5 -3 8 -23 7 -44z m3 -103 c-1 -22 -6 -40 -12 -40 -5 0 -3 -5 5 -10 12 -8
11 -10 -5 -10 -16 0 -20 6 -20 25 1 14 6 30 12 36 7 7 9 18 6 25 -3 8 0 14 6
14 6 0 10 -16 8 -40z m1 -104 c2 -18 0 -26 -7 -21 -6 3 -11 2 -11 -4 0 -5 6
-11 12 -13 7 -3 3 -7 -9 -10 -18 -5 -21 -2 -17 21 3 14 9 28 15 29 5 2 9 8 9
14 0 6 -7 7 -16 4 -9 -3 -12 -2 -9 5 11 18 30 4 33 -25z m-14 -222 c19 -7 22
-54 4 -54 -9 0 -9 -3 -2 -8 12 -8 14 -52 2 -52 -4 0 -9 7 -9 15 -2 17 -5 34
-9 38 -7 9 -6 36 1 31 5 -3 6 -11 3 -17 -4 -7 -3 -8 2 -4 14 13 11 31 -6 44
-16 14 -11 16 14 7z m11 -133 c3 -5 1 -12 -4 -16 -7 -4 -6 -14 1 -29 8 -19 7
-31 -5 -55 -8 -17 -12 -29 -7 -28 4 1 8 -1 9 -5 3 -21 0 -28 -10 -28 -5 0 -7
5 -3 12 4 7 3 8 -4 4 -6 -4 -8 -14 -5 -24 5 -15 4 -15 -13 2 -14 13 -15 20 -6
23 6 3 12 12 12 22 0 9 7 26 15 37 18 24 19 35 1 28 -10 -4 -13 3 -11 28 2 18
4 34 4 36 2 6 20 1 26 -7z m-760 -151 c-3 -5 3 -10 14 -10 11 0 23 -4 26 -10
3 -5 14 -10 23 -9 14 0 13 2 -3 9 -21 9 19 13 113 12 52 -1 58 -5 42 -29 -9
-14 -10 -14 -6 -2 3 13 -3 18 -24 21 -16 2 -27 1 -25 -3 3 -4 -1 -12 -9 -18
-11 -9 -18 -8 -30 4 -9 9 -16 12 -16 7 0 -5 -6 -9 -12 -10 -59 -7 -73 -6 -71
5 3 13 -22 12 -34 -2 -5 -4 -1 -5 7 0 8 5 12 4 7 0 -10 -12 -38 -15 -31 -4 3
5 -2 9 -10 9 -8 0 -18 -5 -21 -10 -5 -8 -11 -8 -19 -1 -7 6 -22 9 -35 6 -12
-2 -19 0 -16 5 3 5 1 11 -4 14 -5 3 -11 -1 -14 -9 -7 -16 -50 -12 -55 5 -2 6
-9 7 -14 4 -6 -4 -8 -3 -5 2 8 14 100 9 105 -5 3 -9 7 -9 18 0 11 9 18 8 31
-2 14 -12 15 -12 9 0 -6 10 -4 12 11 7 12 -4 25 -1 33 9 14 17 25 20 15 5z
m325 -11 c0 -6 -4 -7 -10 -4 -5 3 -7 0 -5 -7 6 -16 42 -21 50 -8 3 5 0 12 -6
16 -8 4 -9 3 -5 -4 4 -7 2 -12 -3 -12 -6 0 -11 7 -11 15 0 18 26 20 34 3 5
-10 7 -10 12 0 3 6 10 12 15 12 6 0 8 -4 5 -8 -3 -5 10 -8 29 -8 19 1 35 5 35
11 0 5 5 3 10 -5 6 -10 10 -11 10 -2 0 6 5 12 11 12 5 0 7 -5 3 -12 -5 -8 -3
-8 7 -2 18 11 100 13 93 2 -3 -4 -1 -8 5 -8 5 0 12 4 15 9 7 10 56 2 56 -10 0
-5 0 -12 0 -16 0 -3 -11 -7 -25 -9 -14 -1 -25 2 -25 8 0 6 -8 7 -17 3 -26 -10
-63 -13 -63 -5 0 4 -13 7 -30 8 -16 0 -30 -2 -30 -6 0 -4 -20 -8 -45 -8 -25
-1 -45 2 -45 7 0 5 -8 9 -17 9 -14 0 -15 -2 -5 -9 9 -5 -5 -8 -37 -8 -28 0
-51 4 -51 8 0 5 -5 9 -11 9 -5 0 -8 -4 -5 -8 2 -4 -6 -8 -20 -8 -13 0 -24 4
-24 8 0 4 5 8 11 8 5 0 7 5 4 10 -3 6 -1 10 4 10 6 0 11 -5 11 -12 0 -8 5 -7
15 3 17 17 55 23 55 8z"/>
<path d="M1474 2263 c-14 -15 -21 -29 -15 -31 6 -2 9 -8 5 -13 -13 -21 10 -6
43 29 20 20 30 28 22 17 -14 -20 -14 -20 11 0 14 11 27 21 29 22 2 2 -12 3
-33 3 -27 0 -43 -7 -62 -27z"/>
<path d="M1148 2183 l-58 -4 0 -744 0 -745 430 0 430 0 0 745 0 745 -27 1
c-38 1 -183 1 -209 0 -14 -1 -26 -12 -34 -31 -7 -16 -30 -45 -51 -64 -66 -60
-152 -60 -219 0 -22 20 -45 51 -52 70 -11 32 -14 34 -48 28 -48 -9 -51 -14 -6
-14 31 0 38 -4 47 -27 13 -34 55 -80 91 -99 15 -8 50 -14 78 -14 28 0 63 6 78
14 36 19 78 65 91 99 l11 27 102 -2 103 -2 -97 -3 c-54 -2 -98 -6 -98 -9 0
-11 29 -34 40 -32 6 2 21 -17 33 -42 14 -28 34 -51 53 -60 17 -8 39 -26 50
-40 18 -24 19 -51 22 -533 3 -569 4 -559 -66 -594 -25 -13 -44 -33 -57 -61
-11 -24 -27 -43 -40 -45 -14 -3 -12 -5 8 -6 16 0 30 5 33 14 6 15 24 21 24 8
-1 -32 -17 -34 -285 -33 -276 1 -295 3 -295 41 0 10 -9 24 -20 32 -11 8 -17
17 -13 20 14 15 25 5 44 -38 17 -38 24 -45 47 -44 20 1 22 3 7 6 -11 2 -29 22
-40 46 -12 24 -32 48 -50 57 -16 8 -35 22 -42 30 -11 13 -12 12 -13 -6 0 -15
8 -24 25 -28 14 -4 23 -11 20 -15 -8 -14 -44 -1 -55 19 -5 10 -7 20 -4 23 3 2
5 249 5 548 -1 602 -5 563 64 599 16 9 38 34 50 58 11 23 26 42 33 42 17 0 43
26 35 34 -4 3 -47 7 -97 8 -90 1 -90 2 -26 7 50 5 59 8 40 13 -14 4 -27 7 -30
6 -3 -1 -31 -3 -62 -5z m112 -63 c-15 -16 -27 -38 -26 -47 1 -12 -14 -25 -41
-38 -28 -13 -42 -27 -43 -40 0 -17 -2 -17 -10 -5 -16 24 -12 30 34 50 52 22
64 36 36 45 -11 3 -20 11 -20 18 0 8 3 8 12 -1 16 -16 28 -15 28 2 0 18 27 46
45 46 8 0 1 -12 -15 -30z m534 14 c18 -18 20 -30 6 -39 -5 -3 -10 2 -10 13 0
10 -10 24 -22 30 -17 8 -19 11 -6 11 9 1 24 -6 32 -15z m-570 -9 c-5 -12 -9
-13 -21 -4 -11 10 -15 8 -20 -9 -3 -12 -9 -19 -14 -16 -5 3 -9 -2 -9 -11 0
-12 6 -15 23 -10 21 6 21 6 3 -9 -39 -31 -61 -11 -49 44 5 28 9 30 49 30 35 0
42 -3 38 -15z m682 -21 c4 -20 2 -40 -4 -46 -12 -12 -52 -1 -52 14 0 5 6 8 14
5 25 -10 27 6 4 30 -15 16 -25 20 -33 13 -9 -8 -14 -6 -19 5 -4 12 3 15 39 15
43 0 44 -1 51 -36z m-786 -671 c0 -377 -2 -684 -5 -681 -8 8 -8 1368 0 1368 3
0 5 -309 5 -687z m725 657 c-10 -11 -23 -17 -29 -13 -6 4 -2 -3 8 -15 11 -12
29 -22 41 -22 28 0 48 -23 42 -47 -4 -16 -6 -15 -12 4 -4 13 -18 24 -35 28
-35 8 -62 37 -54 58 3 10 10 15 14 12 5 -3 11 -1 15 5 3 5 11 10 17 10 6 0 3
-9 -7 -20z m95 -655 c0 -427 -4 -676 -10 -680 -7 -4 -10 235 -10 674 0 452 3
681 10 681 7 0 10 -227 10 -675z m-40 -590 c-7 -8 -19 -15 -26 -15 -8 0 -14
-6 -14 -12 0 -10 -3 -9 -9 1 -6 10 -10 10 -16 1 -4 -7 1 -13 14 -17 12 -3 21
-9 21 -14 0 -5 -7 -6 -15 -3 -11 5 -13 2 -8 -12 4 -12 3 -15 -6 -10 -7 5 -10
15 -6 23 4 13 3 14 -9 4 -9 -7 -17 -8 -20 -2 -7 11 49 61 69 61 7 0 16 10 20
23 6 19 8 20 12 4 3 -10 -1 -24 -7 -32z m-710 -52 c0 -8 5 -11 10 -8 11 7 14
-8 3 -18 -3 -4 -12 1 -19 11 -7 9 -15 14 -19 10 -4 -3 2 -15 13 -26 13 -13 23
-17 30 -10 6 6 11 4 15 -6 5 -13 -2 -16 -37 -16 -38 0 -45 3 -50 25 -9 35 8
65 34 58 11 -3 20 -12 20 -20z m713 5 c6 -8 7 -27 3 -41 -6 -24 -11 -27 -51
-27 -36 0 -43 3 -39 15 5 12 10 13 20 4 11 -9 15 -8 20 5 3 9 10 14 14 11 4
-3 10 2 14 10 3 8 1 17 -4 20 -14 9 -12 27 2 23 6 -2 16 -11 21 -20z m-6 -92
c4 -3 -167 -5 -378 -4 -211 0 -364 4 -339 7 57 8 709 5 717 -3z"/>
<path d="M1295 1963 c303 -7 565 -7 565 0 0 4 -154 6 -342 5 -189 -1 -289 -4
-223 -5z"/>
<path d="M1455 1860 c0 -40 3 -50 17 -50 11 0 15 6 11 20 -3 11 -1 20 5 20 5
0 12 -9 15 -20 4 -15 14 -20 41 -20 23 0 35 4 34 12 -2 6 5 14 15 16 15 3 18
0 12 -17 -5 -18 -2 -21 19 -21 30 0 30 -1 11 36 -8 16 -15 38 -15 49 0 33 -37
30 -43 -3 -3 -15 -13 -36 -21 -47 -15 -20 -15 -20 -30 0 -10 14 -11 24 -4 32
15 19 -8 43 -41 43 -25 0 -26 -3 -26 -50z"/>
<path d="M1347 1894 c-3 -4 -2 -16 4 -27 6 -10 9 -32 6 -46 -5 -26 -4 -27 26
-23 39 5 59 27 47 51 -5 9 -11 24 -14 34 -5 17 -55 25 -69 11z"/>
<path d="M1672 1859 c-1 -22 -4 -44 -7 -49 -3 -4 4 -10 15 -13 17 -4 19 -1 14
19 -3 13 -2 24 4 24 5 0 13 -11 16 -25 4 -14 13 -25 22 -25 11 0 12 5 6 18 -5
9 -7 31 -5 48 4 26 1 32 -19 37 -40 11 -45 8 -46 -34z"/>
<path d="M1276 1881 c-4 -5 -1 -11 4 -13 6 -2 12 -20 13 -41 2 -32 5 -37 26
-37 19 0 21 3 12 14 -6 7 -12 30 -13 50 -1 27 -6 36 -19 36 -10 0 -20 -4 -23
-9z"/>
<path d="M1782 1849 c8 -23 8 -37 0 -50 -9 -13 -8 -19 4 -23 26 -10 36 -7 30
10 -8 21 9 51 34 59 11 4 18 11 15 16 -11 17 -33 9 -39 -13 -5 -18 -8 -20 -15
-9 -5 8 -7 20 -4 28 3 8 -2 13 -15 13 -19 0 -20 -3 -10 -31z"/>
<path d="M1187 1863 c-15 -4 -16 -6 -2 -26 8 -12 15 -33 15 -48 0 -26 1 -27
40 -17 22 6 40 16 40 24 0 19 -17 26 -24 9 -9 -24 -23 -18 -34 14 -7 20 -7 32
1 40 12 12 -1 13 -36 4z"/>
<path d="M1470 1718 c-63 -11 -121 -25 -127 -30 -10 -8 -13 -66 -13 -227 0
-119 4 -221 8 -228 19 -29 57 -31 197 -7 101 17 143 28 152 41 20 26 18 396
-2 413 -8 6 -19 9 -25 5 -9 -6 -230 -45 -252 -45 -5 0 -8 -96 -9 -212 0 -117
-3 -207 -6 -200 -2 6 -13 12 -23 12 -10 0 -22 5 -26 11 -5 9 1 10 20 5 34 -8
35 11 1 24 -14 5 -25 12 -25 15 0 3 11 3 25 -1 l25 -6 0 131 c0 105 -3 131
-14 131 -7 0 -19 7 -26 15 -11 14 -10 14 14 6 21 -9 26 -8 26 4 0 8 -4 15 -8
15 -5 0 -17 7 -28 15 -18 15 -18 15 9 9 20 -5 27 -2 27 9 0 9 -9 19 -20 22
-11 3 -20 14 -20 23 0 15 2 15 10 2 7 -10 13 -11 18 -5 4 6 52 19 107 29 55
10 108 20 118 23 9 2 17 0 17 -6 0 -5 -34 -15 -75 -22 -41 -7 -75 -16 -75 -19
0 -3 40 1 88 9 84 14 88 16 84 38 -5 28 -16 28 -172 1z m184 -79 c-8 -13 8
-39 20 -32 8 5 8 3 -1 -8 -7 -8 -11 -47 -10 -95 0 -44 -3 -85 -6 -92 -4 -6 -2
-14 4 -18 8 -5 8 -9 -1 -14 -8 -5 -9 -13 -4 -21 21 -35 0 -87 -31 -76 -9 4
-15 1 -15 -8 0 -8 -5 -15 -11 -15 -5 0 -7 5 -3 12 4 6 3 8 -3 5 -14 -9 -83
-20 -110 -19 -44 3 -50 5 -49 21 1 9 -5 15 -14 13 -12 -3 -11 0 2 15 21 23 23
34 6 44 -7 5 -8 9 -3 9 7 0 10 35 9 98 -1 53 2 102 7 109 7 7 6 14 -1 18 -12
7 21 37 37 34 4 -1 16 1 26 6 9 4 28 5 42 3 13 -3 22 -2 20 3 -6 9 16 14 62
15 18 0 30 -3 27 -7z m-276 -202 c2 -67 -1 -97 -9 -97 -8 0 -10 26 -7 88 3 69
0 90 -12 100 -13 11 -12 12 5 10 18 -3 20 -12 23 -101z"/>
<path d="M1180 1170 c0 -6 122 -10 345 -10 223 0 345 4 345 10 0 6 -122 10
-345 10 -223 0 -345 -4 -345 -10z"/>
<path d="M1347 1083 c94 -2 252 -2 350 0 98 1 21 2 -172 2 -192 1 -273 -1
-178 -2z"/>
<path d="M1180 1040 c0 -6 120 -10 340 -10 220 0 340 4 340 10 0 6 -120 10
-340 10 -220 0 -340 -4 -340 -10z"/>
<path d="M1510 950 c184 -3 342 -2 350 2 8 4 -142 7 -335 5 l-350 -1 335 -6z"/>
<path d="M1230 870 c0 -6 103 -10 290 -10 187 0 290 4 290 10 0 6 -103 10
-290 10 -187 0 -290 -4 -290 -10z"/>
<path d="M2033 574 c-28 -28 -30 -31 -11 -26 30 8 64 40 52 50 -5 4 -24 -7
-41 -24z"/>
</g>
</svg>
