<?xml version="1.0" standalone="no"?>
<!DOCTYPE svg PUBLIC "-//W3C//DTD SVG 20010904//EN"
 "http://www.w3.org/TR/2001/REC-SVG-20010904/DTD/svg10.dtd">
<svg version="1.0" xmlns="http://www.w3.org/2000/svg"
 width="300.000000pt" height="300.000000pt" viewBox="0 0 300.000000 300.000000"
 preserveAspectRatio="xMidYMid meet">
<metadata>
Created by potrace 1.10, written by Peter Selinger 2001-2011
</metadata>
<g transform="translate(0.000000,300.000000) scale(0.100000,-0.100000)"
fill="#5c4033" stroke="none">
<path d="M778 2561 l-33 -29 0 -1022 0 -1022 33 -29 32 -29 681 0 c588 0 684
2 709 15 63 33 60 -23 60 1067 0 965 -1 994 -19 1022 -38 57 -10 55 -748 56
l-683 0 -32 -29z m1407 -46 l25 -24 0 -981 0 -981 -25 -24 -24 -25 -665 0
-665 0 -20 26 c-24 31 -28 74 -7 74 26 0 30 23 8 41 -12 9 -22 23 -22 29 0 6
10 20 22 29 22 18 18 41 -8 41 -9 0 -14 10 -14 27 0 14 3 23 7 20 3 -4 12 -2
19 4 15 13 7 39 -12 39 -8 0 -14 7 -14 15 0 8 7 15 15 15 9 0 18 7 21 15 7 18
-14 47 -27 39 -5 -3 -9 4 -9 15 0 12 6 21 14 21 8 0 17 4 20 9 9 14 -4 41 -20
41 -8 0 -14 7 -14 15 0 9 6 12 15 9 8 -4 17 1 21 10 7 18 -14 49 -27 40 -5 -3
-9 4 -9 15 0 12 6 21 14 21 26 0 30 23 8 41 -25 19 -30 41 -8 33 8 -3 17 -1
20 4 9 15 -4 42 -20 42 -8 0 -14 7 -14 15 0 8 9 15 20 15 11 0 20 6 20 14 0
17 -24 38 -33 29 -4 -3 -7 3 -7 15 0 13 6 22 14 22 8 0 18 5 21 10 8 13 -14
42 -26 34 -5 -3 -9 1 -9 9 0 8 9 17 20 20 11 3 20 13 20 22 0 9 -9 19 -20 22
-11 3 -20 11 -20 19 0 8 6 11 15 8 8 -4 17 1 21 10 7 18 -14 49 -27 40 -5 -3
-9 6 -9 20 0 16 6 26 14 26 8 0 18 5 21 10 8 13 -14 42 -26 34 -5 -3 -9 4 -9
15 0 12 6 21 14 21 26 0 30 23 8 41 -26 21 -28 37 -5 35 26 -2 29 34 4 41 -24
6 -29 43 -7 43 8 0 18 5 21 10 8 13 -14 42 -26 34 -5 -3 -9 2 -9 10 0 9 6 16
14 16 8 0 17 4 20 9 9 14 -4 41 -20 41 -8 0 -14 5 -14 10 0 6 6 10 14 10 8 0
17 4 20 9 9 14 -4 41 -20 41 -8 0 -14 6 -14 14 0 8 8 13 17 12 26 -2 29 34 4
41 -14 4 -21 13 -21 30 0 13 4 22 9 19 12 -8 34 21 26 34 -3 5 -13 10 -21 10
-21 0 -17 27 6 33 11 3 20 13 20 22 0 9 -9 19 -20 22 -22 6 -28 43 -6 43 16 0
29 27 20 41 -3 5 -12 9 -20 9 -19 0 -18 36 1 44 8 3 15 15 15 26 0 11 -7 20
-15 20 -24 0 -20 85 5 110 20 20 33 20 685 20 l666 0 24 -25z"/>
<path d="M965 2510 c-3 -5 -14 -10 -23 -10 -10 0 -36 -20 -60 -45 -37 -39 -41
-47 -32 -70 15 -40 13 -1700 -2 -1724 -10 -16 -5 -26 32 -70 32 -38 48 -50 62
-45 12 3 18 0 18 -10 0 -9 3 -16 8 -16 4 0 248 0 542 -1 485 0 536 2 547 17 6
9 17 13 24 9 7 -5 27 9 53 37 l41 45 -2 899 c-2 578 -6 900 -12 902 -6 2 -20
19 -31 38 -13 20 -30 34 -41 34 -11 0 -28 5 -38 12 -15 9 -24 8 -45 -5 -37
-25 -354 -25 -428 0 -45 14 -59 15 -112 3 -34 -7 -145 -14 -247 -17 -159 -3
-188 -2 -199 12 -14 17 -46 20 -55 5z m1140 -96 c19 -5 23 -10 16 -17 -23 -23
-103 45 -86 73 5 7 14 0 26 -19 10 -17 30 -33 44 -37z m-1115 45 c0 -16 -56
-69 -74 -69 -23 0 -20 17 4 25 11 4 28 17 36 31 17 25 34 32 34 13z m601 -12
c26 -14 52 -37 63 -59 15 -26 30 -38 60 -46 23 -6 56 -21 74 -32 28 -17 32
-23 22 -35 -7 -8 -9 -22 -6 -31 5 -12 14 -15 40 -10 32 6 37 3 76 -46 57 -71
107 -177 126 -268 13 -62 15 -134 12 -410 -4 -316 -5 -339 -27 -405 -45 -139
-142 -280 -185 -269 -29 7 -54 -19 -37 -40 15 -18 -23 -50 -90 -73 -33 -12
-50 -24 -53 -39 -17 -65 -118 -123 -190 -110 -44 8 -104 59 -122 103 -10 22
-22 33 -43 38 -17 3 -48 20 -71 36 -33 24 -39 33 -30 44 17 20 4 35 -30 35
-39 0 -101 72 -150 175 -61 129 -64 150 -64 545 -1 317 1 361 17 414 25 81 67
162 116 224 37 47 44 51 72 45 35 -7 53 11 39 38 -7 11 -5 20 3 27 22 17 96
52 111 52 9 0 22 12 30 28 45 87 146 116 237 69z m-489 -23 c11 -23 9 -28 -12
-44 -23 -17 -24 -17 -48 11 -30 36 -23 59 18 59 23 0 33 -6 42 -26z m108 18
c0 -4 -14 -13 -32 -20 -25 -9 -34 -9 -40 1 -14 22 -8 27 32 27 22 0 40 -4 40
-8z m117 -10 c-19 -20 -96 -45 -127 -40 -17 2 -11 9 32 30 29 15 66 28 82 28
27 0 28 -1 13 -18z m470 -15 c36 -21 37 -22 14 -25 -34 -5 -97 17 -118 41 -18
20 -17 20 24 13 23 -3 59 -16 80 -29z m93 13 c-6 -11 -12 -20 -14 -20 -9 0
-76 31 -76 35 0 3 23 5 50 5 48 0 50 -1 40 -20z m108 -2 c2 -9 -8 -27 -21 -40
-22 -22 -26 -23 -46 -10 -25 17 -26 29 -4 54 20 23 66 20 71 -4z m-977 -67
l23 -18 -35 -41 -34 -41 -3 46 c-5 74 7 88 49 54z m189 1 c0 -8 -14 -16 -62
-40 -5 -2 -8 5 -8 16 0 11 6 23 13 25 20 9 57 8 57 -1z m668 -19 c2 -13 1 -23
-2 -23 -8 0 -76 42 -76 47 0 2 17 3 38 1 30 -2 38 -7 40 -25z m178 13 c3 -7 4
-36 2 -64 l-3 -50 -38 44 c-32 37 -36 47 -27 64 12 23 58 27 66 6z m-1126
-836 c0 -823 0 -830 -20 -830 -20 0 -20 7 -20 830 0 823 0 830 20 830 20 0 20
-7 20 -830z m1210 0 c0 -823 0 -830 -20 -830 -20 0 -20 7 -20 830 0 823 0 830
20 830 20 0 20 -7 20 -830z m-1035 783 c-6 -35 -41 -91 -58 -92 -15 -2 6 84
26 107 30 32 40 28 32 -15z m844 8 c12 -17 21 -45 21 -66 l0 -37 -27 33 c-16
18 -27 38 -25 45 1 7 -2 15 -8 19 -15 9 -12 35 4 35 8 0 24 -13 35 -29z m-958
-164 l-21 -42 0 43 c0 24 8 57 17 75 l18 32 3 -33 c2 -20 -5 -51 -17 -75z
m1052 64 c10 -17 17 -49 17 -78 l-1 -48 -15 35 c-18 41 -34 120 -25 120 4 0
14 -13 24 -29z m-1055 -1259 c19 -50 26 -102 14 -102 -13 0 -29 45 -36 104 -7
55 1 54 22 -2z m1053 -69 l-20 -38 -1 30 c0 16 8 50 18 75 l17 45 3 -37 c2
-23 -5 -51 -17 -75z m-964 -42 c12 -15 25 -46 29 -67 l7 -39 -31 28 c-21 21
-31 40 -34 68 -4 47 1 48 29 10z m862 -85 l-31 -31 6 43 c4 24 16 57 29 74
l22 30 3 -43 c3 -37 -1 -46 -29 -73z m120 14 c0 -76 -2 -92 -16 -97 -10 -4
-19 -1 -21 7 -3 8 -16 25 -30 39 l-25 25 22 14 c11 8 21 23 21 33 0 11 4 19 8
19 5 0 15 11 22 25 7 14 14 25 16 25 1 0 2 -41 3 -90z m-1049 20 c0 -10 10
-24 22 -32 l22 -15 -37 -36 c-20 -21 -39 -37 -41 -37 -3 0 -5 39 -5 86 1 84 1
85 20 68 10 -9 19 -25 19 -34z m165 -73 c-24 -13 -44 -2 -38 22 5 19 6 19 30
4 22 -14 23 -17 8 -26z m705 13 c0 -15 -7 -20 -25 -20 -29 0 -33 15 -7 29 25
15 32 13 32 -9z m-782 -32 c30 -30 1 -68 -51 -68 -38 0 -40 11 -5 47 36 37 39
38 56 21z m882 -20 c38 -42 37 -48 -4 -48 -55 0 -87 47 -48 69 9 6 18 11 20
11 1 0 16 -15 32 -32z m-733 2 c14 -11 34 -20 43 -20 10 0 20 -7 24 -15 10
-27 -57 -19 -84 10 -13 14 -29 25 -36 25 -7 0 -16 5 -19 10 -11 18 46 10 72
-10z m603 6 c0 -8 -113 -56 -132 -56 -30 0 -16 23 20 32 17 5 34 13 37 18 6
10 75 15 75 6z m-654 -41 c18 -13 16 -14 -23 -15 -40 0 -52 8 -36 23 11 12 38
8 59 -8z m694 0 c11 -13 6 -15 -36 -14 l-49 1 30 13 c38 18 40 18 55 0z m-926
-26 c25 -29 34 -59 19 -59 -5 0 -16 14 -25 30 -9 17 -29 35 -43 40 -32 12 -32
20 -1 20 15 0 34 -12 50 -31z m1161 21 c-3 -5 -12 -10 -20 -10 -8 0 -26 -16
-41 -35 -15 -20 -29 -34 -31 -31 -9 8 8 47 30 66 21 20 73 28 62 10z m-758
-68 c22 -16 15 -17 -157 -17 -165 0 -180 1 -180 18 0 15 14 17 158 17 133 0
160 -3 179 -18z m623 3 c0 -12 -30 -15 -177 -17 -98 -2 -180 -2 -182 0 -3 1 4
9 15 17 28 21 344 22 344 0z"/>
<path d="M1489 2348 c-1 -7 -3 -20 -4 -28 -1 -8 -3 -21 -4 -27 0 -7 -9 -13
-18 -13 -25 -1 -56 -26 -48 -39 3 -6 19 -11 36 -11 29 0 31 -3 33 -50 1 -18 7
-25 21 -25 15 0 21 8 25 35 4 29 10 36 35 40 40 7 39 32 -2 44 -27 8 -32 15
-35 45 -2 25 -8 37 -20 39 -10 2 -19 -2 -19 -10z"/>
<path d="M1375 2096 c-89 -29 -142 -62 -215 -135 -121 -122 -166 -240 -157
-411 8 -163 76 -292 202 -387 104 -79 164 -98 310 -98 118 0 121 1 199 37 196
94 317 299 303 513 -15 221 -162 412 -366 475 -74 23 -213 26 -276 6z m316
-78 c46 -23 96 -58 130 -92 240 -238 174 -630 -130 -779 -63 -30 -72 -32 -181
-32 -109 0 -119 2 -183 32 -248 118 -349 424 -219 667 34 65 134 166 192 196
80 41 120 50 221 47 88 -2 103 -6 170 -39z"/>
<path d="M1492 1968 c-20 -25 -24 -83 -8 -121 8 -21 19 -37 25 -37 11 0 31 54
31 85 0 29 -20 85 -30 85 -4 0 -12 -6 -18 -12z"/>
<path d="M1250 1875 c0 -25 26 -79 46 -96 11 -9 53 -29 94 -44 41 -15 81 -35
88 -43 16 -20 17 -101 1 -85 -6 6 -16 22 -23 34 -26 53 -126 92 -126 50 0 -29
35 -66 82 -85 74 -31 73 -29 76 -92 3 -61 -5 -65 -23 -11 -12 37 -73 83 -89
67 -7 -7 -6 -23 4 -53 12 -32 24 -47 54 -62 40 -21 65 -49 54 -60 -11 -11 -63
22 -101 64 -20 22 -41 59 -47 83 -15 61 -28 88 -41 88 -7 0 -9 -10 -6 -26 l5
-26 -25 26 c-28 31 -70 49 -90 41 -12 -4 -11 -10 3 -35 19 -31 77 -65 98 -57
8 3 21 -14 34 -44 20 -49 15 -66 -10 -31 -18 26 -51 42 -87 42 -43 0 -47 -16
-12 -49 33 -30 85 -46 123 -36 17 4 30 -1 46 -18 l23 -25 -44 5 c-44 5 -87 -9
-87 -28 0 -16 68 -40 94 -33 14 3 32 14 42 25 16 18 18 18 46 1 33 -19 41 -41
36 -98 l-3 -39 -85 -5 c-67 -4 -85 -8 -85 -20 0 -13 28 -15 195 -15 167 0 195
2 195 15 0 12 -18 16 -87 18 l-88 3 0 62 c0 58 2 63 29 78 27 16 30 16 49 -3
24 -24 91 -27 123 -5 l21 15 -26 17 c-19 13 -39 16 -72 12 l-45 -5 23 25 c18
19 29 23 52 19 42 -9 102 11 125 41 29 36 26 43 -19 43 -30 0 -48 -8 -77 -32
-28 -25 -35 -28 -29 -13 4 11 12 31 17 45 7 18 23 29 56 40 52 17 95 62 76 81
-14 14 -46 4 -84 -29 -29 -24 -31 -24 -25 -5 8 25 -7 39 -22 20 -5 -6 -13 -28
-17 -47 -10 -49 -32 -89 -69 -128 -33 -35 -84 -67 -93 -58 -12 12 8 36 46 55
47 24 71 55 71 92 0 36 -8 41 -41 23 -29 -14 -59 -60 -59 -89 0 -8 -4 -15 -10
-15 -13 0 -13 71 -1 103 7 17 20 26 44 31 43 8 82 38 103 78 19 37 15 42 -32
33 -39 -7 -94 -53 -94 -78 0 -8 -7 -17 -15 -21 -11 -4 -15 2 -15 24 0 52 15
75 58 88 117 35 182 86 182 143 0 16 -3 29 -7 29 -22 0 -76 -44 -87 -71 -7
-17 -27 -39 -45 -50 -43 -26 -55 -24 -26 6 16 15 25 36 25 55 0 30 0 31 -29
15 -40 -20 -71 -62 -71 -96 0 -42 -15 -35 -29 12 -14 46 -54 89 -82 89 -27 0
-24 -33 7 -69 29 -35 27 -37 -18 -15 -20 9 -40 30 -50 53 -24 51 -98 93 -98
56z"/>
<path d="M1210 1736 c0 -19 5 -46 11 -59 12 -27 45 -50 59 -42 29 18 -14 126
-53 133 -13 3 -17 -4 -17 -32z"/>
<path d="M1767 1759 c-36 -21 -62 -108 -37 -124 29 -18 80 52 80 110 0 26 -14
31 -43 14z"/>
<path d="M1485 930 c-3 -5 -3 -19 0 -31 8 -24 -11 -50 -31 -42 -8 3 -21 -1
-30 -8 -14 -12 -14 -14 2 -26 10 -7 25 -13 35 -13 19 0 31 -23 23 -43 -6 -18
20 -52 34 -43 7 4 12 25 12 47 0 34 3 39 24 39 31 0 56 28 35 41 -8 5 -24 9
-36 9 -18 0 -22 7 -25 37 -3 38 -28 57 -43 33z"/>
</g>
</svg>
